<svg width="286" height="150" viewBox="0 0 286 150" fill="none" xmlns="http://www.w3.org/2000/svg">
<rect width="286" height="150" rx="20" fill="#624495"/>
<path d="M28.76 80V67.56H24.34V65.8H35V67.56H30.58V80H28.76ZM39.6294 80.2C38.096 80.2 36.8494 79.7067 35.8894 78.72C34.9294 77.7333 34.4494 76.4933 34.4494 75C34.4494 73.52 34.936 72.2867 35.9094 71.3C36.8827 70.3 38.1294 69.8 39.6494 69.8C40.996 69.8 42.1227 70.2533 43.0294 71.16C43.9494 72.0533 44.4094 73.2733 44.4094 74.82C44.4094 75.02 44.4027 75.1933 44.3894 75.34H36.1894C36.216 76.2733 36.5494 77.0533 37.1894 77.68C37.8427 78.3067 38.6627 78.62 39.6494 78.62C41.0494 78.62 42.0894 78.04 42.7694 76.88L44.1294 77.82C43.156 79.4067 41.656 80.2 39.6294 80.2ZM36.3094 73.94H42.6494C42.516 73.14 42.1627 72.5067 41.5894 72.04C41.0294 71.56 40.3627 71.32 39.5894 71.32C38.8027 71.32 38.096 71.56 37.4694 72.04C36.856 72.5067 36.4694 73.14 36.3094 73.94ZM51.3105 80.2C49.8038 80.2 48.5505 79.7 47.5505 78.7C46.5638 77.7 46.0705 76.4667 46.0705 75C46.0705 73.5333 46.5638 72.3 47.5505 71.3C48.5505 70.3 49.8038 69.8 51.3105 69.8C52.3238 69.8 53.2305 70.04 54.0305 70.52C54.8438 71 55.4771 71.6533 55.9305 72.48L54.4305 73.32C54.1371 72.7333 53.7171 72.2667 53.1705 71.92C52.6371 71.5733 52.0171 71.4 51.3105 71.4C50.2838 71.4 49.4438 71.7467 48.7905 72.44C48.1371 73.1333 47.8105 73.9867 47.8105 75C47.8105 76.0133 48.1371 76.8667 48.7905 77.56C49.4438 78.2533 50.2838 78.6 51.3105 78.6C52.0171 78.6 52.6371 78.4267 53.1705 78.08C53.7171 77.7333 54.1371 77.2667 54.4305 76.68L55.9305 77.52C55.4771 78.3467 54.8438 79 54.0305 79.48C53.2305 79.96 52.3238 80.2 51.3105 80.2ZM59.8791 80H58.1591V65H59.8791V71.54C60.5591 70.38 61.6191 69.8 63.0591 69.8C64.1924 69.8 65.1057 70.1667 65.7991 70.9C66.4924 71.6333 66.8391 72.6133 66.8391 73.84V80H65.1391V74.1C65.1391 73.26 64.9257 72.6 64.4991 72.12C64.0724 71.6267 63.4991 71.38 62.7791 71.38C61.9524 71.38 61.2591 71.7067 60.6991 72.36C60.1524 73.0133 59.8791 73.9067 59.8791 75.04V80ZM69.9364 80V70H71.6564V71.54C72.3364 70.38 73.3964 69.8 74.8364 69.8C75.9697 69.8 76.8831 70.1667 77.5764 70.9C78.2697 71.6333 78.6164 72.6133 78.6164 73.84V80H76.9164V74.1C76.9164 73.26 76.7031 72.6 76.2764 72.12C75.8497 71.6267 75.2764 71.38 74.5564 71.38C73.7297 71.38 73.0364 71.7067 72.4764 72.36C71.9297 73.0133 71.6564 73.9067 71.6564 75.04V80H69.9364ZM86.1538 80.2C84.6471 80.2 83.3938 79.7 82.3938 78.7C81.4071 77.6867 80.9138 76.4533 80.9138 75C80.9138 73.5467 81.4071 72.32 82.3938 71.32C83.3938 70.3067 84.6471 69.8 86.1538 69.8C87.6471 69.8 88.8871 70.3067 89.8738 71.32C90.8738 72.32 91.3738 73.5467 91.3738 75C91.3738 76.4533 90.8738 77.6867 89.8738 78.7C88.8871 79.7 87.6471 80.2 86.1538 80.2ZM83.6338 77.56C84.2871 78.2533 85.1271 78.6 86.1538 78.6C87.1804 78.6 88.0138 78.2533 88.6538 77.56C89.2938 76.8667 89.6138 76.0133 89.6138 75C89.6138 73.9867 89.2938 73.1333 88.6538 72.44C88.0138 71.7467 87.1804 71.4 86.1538 71.4C85.1271 71.4 84.2871 71.7467 83.6338 72.44C82.9938 73.1333 82.6738 73.9867 82.6738 75C82.6738 76.0133 82.9938 76.8667 83.6338 77.56ZM93.8427 80V65H95.5627V80H93.8427ZM103.263 80.2C101.756 80.2 100.503 79.7 99.5031 78.7C98.5165 77.6867 98.0231 76.4533 98.0231 75C98.0231 73.5467 98.5165 72.32 99.5031 71.32C100.503 70.3067 101.756 69.8 103.263 69.8C104.756 69.8 105.996 70.3067 106.983 71.32C107.983 72.32 108.483 73.5467 108.483 75C108.483 76.4533 107.983 77.6867 106.983 78.7C105.996 79.7 104.756 80.2 103.263 80.2ZM100.743 77.56C101.396 78.2533 102.236 78.6 103.263 78.6C104.29 78.6 105.123 78.2533 105.763 77.56C106.403 76.8667 106.723 76.0133 106.723 75C106.723 73.9867 106.403 73.1333 105.763 72.44C105.123 71.7467 104.29 71.4 103.263 71.4C102.236 71.4 101.396 71.7467 100.743 72.44C100.103 73.1333 99.7831 73.9867 99.7831 75C99.7831 76.0133 100.103 76.8667 100.743 77.56ZM112.872 77.4C113.499 78.0533 114.312 78.38 115.312 78.38C116.312 78.38 117.125 78.0533 117.752 77.4C118.379 76.7333 118.692 75.8933 118.692 74.88C118.692 73.8667 118.372 73.0333 117.732 72.38C117.105 71.7133 116.299 71.38 115.312 71.38C114.325 71.38 113.512 71.7133 112.872 72.38C112.245 73.0333 111.932 73.8667 111.932 74.88C111.932 75.8933 112.245 76.7333 112.872 77.4ZM115.212 84.38C114.185 84.38 113.259 84.1867 112.432 83.8C111.605 83.4267 110.965 82.94 110.512 82.34L111.712 81.14C112.592 82.26 113.759 82.82 115.212 82.82C116.145 82.82 116.932 82.5267 117.572 81.94C118.225 81.3533 118.552 80.4933 118.552 79.36V78.22C118.192 78.7533 117.705 79.18 117.092 79.5C116.479 79.82 115.805 79.98 115.072 79.98C113.672 79.98 112.505 79.4933 111.572 78.52C110.639 77.5333 110.172 76.32 110.172 74.88C110.172 73.4533 110.639 72.2533 111.572 71.28C112.519 70.2933 113.685 69.8 115.072 69.8C115.805 69.8 116.479 69.96 117.092 70.28C117.705 70.6 118.192 71.02 118.552 71.54V70H120.272V79.42C120.272 81.0333 119.799 82.26 118.852 83.1C117.919 83.9533 116.705 84.38 115.212 84.38ZM126.171 84.18H124.251L126.431 79.48L122.051 70H123.951L127.391 77.6L130.811 70H132.731L126.171 84.18ZM28.76 105V92.56H24.34V90.8H35V92.56H30.58V105H28.76ZM35.1708 105V95H36.8908V96.94C37.0774 96.3267 37.4374 95.8333 37.9708 95.46C38.5174 95.0867 39.0908 94.9 39.6908 94.9C39.9841 94.9 40.2441 94.9267 40.4708 94.98V96.76C40.2308 96.6533 39.9174 96.6 39.5308 96.6C38.8374 96.6 38.2241 96.9 37.6908 97.5C37.1574 98.1 36.8908 98.9467 36.8908 100.04V105H35.1708ZM46.283 105.2C44.8963 105.2 43.7296 104.693 42.783 103.68C41.8496 102.667 41.383 101.44 41.383 100C41.383 98.56 41.8496 97.3333 42.783 96.32C43.7296 95.3067 44.8963 94.8 46.283 94.8C47.0163 94.8 47.6963 94.9667 48.323 95.3C48.963 95.62 49.4563 96.0333 49.803 96.54V95H51.523V105H49.803V103.46C49.4563 103.967 48.963 104.387 48.323 104.72C47.6963 105.04 47.0163 105.2 46.283 105.2ZM46.543 103.62C47.5296 103.62 48.343 103.273 48.983 102.58C49.623 101.887 49.943 101.027 49.943 100C49.943 98.9733 49.623 98.1133 48.983 97.42C48.343 96.7267 47.5296 96.38 46.543 96.38C45.543 96.38 44.723 96.7267 44.083 97.42C43.443 98.1133 43.123 98.9733 43.123 100C43.123 101.027 43.443 101.887 44.083 102.58C44.723 103.273 45.543 103.62 46.543 103.62ZM54.7606 105V95H56.4806V96.54C57.1606 95.38 58.2206 94.8 59.6606 94.8C60.794 94.8 61.7073 95.1667 62.4006 95.9C63.094 96.6333 63.4406 97.6133 63.4406 98.84V105H61.7406V99.1C61.7406 98.26 61.5273 97.6 61.1006 97.12C60.674 96.6267 60.1006 96.38 59.3806 96.38C58.554 96.38 57.8606 96.7067 57.3006 97.36C56.754 98.0133 56.4806 98.9067 56.4806 100.04V105H54.7606ZM69.558 105.2C68.638 105.2 67.8313 105.007 67.138 104.62C66.4446 104.22 65.9446 103.64 65.638 102.88L67.038 102.1C67.2246 102.593 67.5513 102.98 68.018 103.26C68.4846 103.54 69.0046 103.68 69.578 103.68C70.0713 103.68 70.4846 103.56 70.818 103.32C71.1513 103.08 71.318 102.753 71.318 102.34C71.318 101.98 71.1846 101.68 70.918 101.44C70.6646 101.2 70.218 100.98 69.578 100.78L68.578 100.46C66.9113 99.98 66.078 99.0067 66.078 97.54C66.078 96.7133 66.4046 96.0533 67.058 95.56C67.7246 95.0533 68.5446 94.8 69.518 94.8C71.038 94.8 72.138 95.38 72.818 96.54L71.538 97.42C70.9913 96.66 70.298 96.28 69.458 96.28C69.0046 96.28 68.6113 96.3933 68.278 96.62C67.958 96.8333 67.798 97.12 67.798 97.48C67.798 97.8133 67.898 98.1 68.098 98.34C68.3113 98.5667 68.6846 98.76 69.218 98.92L70.318 99.26C72.1313 99.82 73.038 100.8 73.038 102.2C73.038 103.133 72.7113 103.867 72.058 104.4C71.418 104.933 70.5846 105.2 69.558 105.2ZM76.2842 105V96.58H74.1642V95H76.2842V92.98C76.2842 91.98 76.5642 91.2133 77.1242 90.68C77.6842 90.1467 78.4242 89.88 79.3442 89.88C79.8909 89.88 80.4109 89.9667 80.9042 90.14V91.66C80.5976 91.5267 80.1842 91.46 79.6642 91.46C79.0909 91.46 78.6709 91.5867 78.4042 91.84C78.1376 92.0933 78.0042 92.5333 78.0042 93.16V95H80.9042V96.58H78.0042V105H76.2842ZM86.9341 105.2C85.4007 105.2 84.1541 104.707 83.1941 103.72C82.2341 102.733 81.7541 101.493 81.7541 100C81.7541 98.52 82.2407 97.2867 83.2141 96.3C84.1874 95.3 85.4341 94.8 86.9541 94.8C88.3007 94.8 89.4274 95.2533 90.3341 96.16C91.2541 97.0533 91.7141 98.2733 91.7141 99.82C91.7141 100.02 91.7074 100.193 91.6941 100.34H83.4941C83.5207 101.273 83.8541 102.053 84.4941 102.68C85.1474 103.307 85.9674 103.62 86.9541 103.62C88.3541 103.62 89.3941 103.04 90.0741 101.88L91.4341 102.82C90.4607 104.407 88.9607 105.2 86.9341 105.2ZM83.6141 98.94H89.9541C89.8207 98.14 89.4674 97.5067 88.8941 97.04C88.3341 96.56 87.6674 96.32 86.8941 96.32C86.1074 96.32 85.4007 96.56 84.7741 97.04C84.1607 97.5067 83.7741 98.14 83.6141 98.94ZM94.1552 105V95H95.8752V96.94C96.0618 96.3267 96.4218 95.8333 96.9552 95.46C97.5018 95.0867 98.0752 94.9 98.6752 94.9C98.9685 94.9 99.2285 94.9267 99.4552 94.98V96.76C99.2152 96.6533 98.9018 96.6 98.5152 96.6C97.8218 96.6 97.2085 96.9 96.6752 97.5C96.1418 98.1 95.8752 98.9467 95.8752 100.04V105H94.1552ZM112.416 103.48C113.976 103.48 115.276 102.94 116.316 101.86C117.369 100.78 117.896 99.46 117.896 97.9C117.896 96.34 117.369 95.02 116.316 93.94C115.276 92.86 113.976 92.32 112.416 92.32C110.869 92.32 109.569 92.86 108.516 93.94C107.476 95.02 106.956 96.34 106.956 97.9C106.956 99.46 107.476 100.78 108.516 101.86C109.569 102.94 110.869 103.48 112.416 103.48ZM112.416 105.24C110.376 105.24 108.642 104.533 107.216 103.12C105.789 101.693 105.076 99.9533 105.076 97.9C105.076 95.8467 105.789 94.1133 107.216 92.7C108.642 91.2733 110.376 90.56 112.416 90.56C114.469 90.56 116.202 91.2733 117.616 92.7C119.042 94.1133 119.756 95.8467 119.756 97.9C119.756 99.9533 119.042 101.693 117.616 103.12C116.202 104.533 114.469 105.24 112.416 105.24ZM138.38 91.98C138.153 92.2067 137.866 92.32 137.52 92.32C137.173 92.32 136.88 92.2067 136.64 91.98C136.4 91.74 136.28 91.4467 136.28 91.1C136.28 90.7667 136.4 90.48 136.64 90.24C136.88 90 137.173 89.88 137.52 89.88C137.866 89.88 138.153 90 138.38 90.24C138.606 90.48 138.72 90.7667 138.72 91.1C138.72 91.4467 138.606 91.74 138.38 91.98ZM136.64 105V95H138.36V105H136.64ZM123.14 105V96.58H121.02V95H123.14V92.94C123.14 91.94 123.42 91.18 123.98 90.66C124.54 90.14 125.28 89.88 126.2 89.88C126.746 89.88 127.266 89.9667 127.76 90.14V91.66C127.48 91.5267 127.066 91.46 126.52 91.46C125.946 91.46 125.526 91.5867 125.26 91.84C124.993 92.0933 124.86 92.5333 124.86 93.16V95H127.32V96.58H124.86V105H123.14ZM130.14 105V96.58H128.42V95H130.14V92.94C130.14 91.94 130.42 91.18 130.98 90.66C131.54 90.14 132.28 89.88 133.2 89.88C133.746 89.88 134.266 89.9667 134.76 90.14V91.66C134.453 91.5267 134.033 91.46 133.5 91.46C132.926 91.46 132.506 91.5867 132.24 91.84C131.986 92.0933 131.86 92.5333 131.86 93.16V95H134.76V96.58H131.86V105H130.14ZM146.076 105.2C144.569 105.2 143.316 104.7 142.316 103.7C141.329 102.7 140.836 101.467 140.836 100C140.836 98.5333 141.329 97.3 142.316 96.3C143.316 95.3 144.569 94.8 146.076 94.8C147.089 94.8 147.996 95.04 148.796 95.52C149.609 96 150.243 96.6533 150.696 97.48L149.196 98.32C148.903 97.7333 148.483 97.2667 147.936 96.92C147.403 96.5733 146.783 96.4 146.076 96.4C145.049 96.4 144.209 96.7467 143.556 97.44C142.903 98.1333 142.576 98.9867 142.576 100C142.576 101.013 142.903 101.867 143.556 102.56C144.209 103.253 145.049 103.6 146.076 103.6C146.783 103.6 147.403 103.427 147.936 103.08C148.483 102.733 148.903 102.267 149.196 101.68L150.696 102.52C150.243 103.347 149.609 104 148.796 104.48C147.996 104.96 147.089 105.2 146.076 105.2ZM157.325 105.2C155.791 105.2 154.545 104.707 153.585 103.72C152.625 102.733 152.145 101.493 152.145 100C152.145 98.52 152.631 97.2867 153.605 96.3C154.578 95.3 155.825 94.8 157.345 94.8C158.691 94.8 159.818 95.2533 160.725 96.16C161.645 97.0533 162.105 98.2733 162.105 99.82C162.105 100.02 162.098 100.193 162.085 100.34H153.885C153.911 101.273 154.245 102.053 154.885 102.68C155.538 103.307 156.358 103.62 157.345 103.62C158.745 103.62 159.785 103.04 160.465 101.88L161.825 102.82C160.851 104.407 159.351 105.2 157.325 105.2ZM154.005 98.94H160.345C160.211 98.14 159.858 97.5067 159.285 97.04C158.725 96.56 158.058 96.32 157.285 96.32C156.498 96.32 155.791 96.56 155.165 97.04C154.551 97.5067 154.165 98.14 154.005 98.94Z" fill="white"/>
<path d="M29.72 45.24C28.6 45.24 27.58 45.02 26.66 44.58C25.7533 44.1267 25.0467 43.5 24.54 42.7L26.76 40.84C27.1067 41.36 27.5533 41.7733 28.1 42.08C28.66 42.3733 29.24 42.52 29.84 42.52C30.4133 42.52 30.8733 42.3933 31.22 42.14C31.5667 41.8867 31.74 41.5533 31.74 41.14C31.74 40.74 31.5867 40.3933 31.28 40.1C30.9733 39.8067 30.4667 39.54 29.76 39.3L28.56 38.88C26.2267 38.0667 25.06 36.7133 25.06 34.82C25.06 33.5133 25.5067 32.48 26.4 31.72C27.2933 30.9467 28.4467 30.56 29.86 30.56C31.6733 30.56 33.1667 31.2133 34.34 32.52L32.42 34.5C31.74 33.6867 30.8933 33.28 29.88 33.28C29.36 33.28 28.9133 33.3933 28.54 33.62C28.1667 33.8333 27.98 34.14 27.98 34.54C27.98 34.9533 28.14 35.28 28.46 35.52C28.7933 35.76 29.3667 36.0267 30.18 36.32L31.32 36.74C33.5733 37.58 34.7 38.9867 34.7 40.96C34.7 42.2267 34.2333 43.26 33.3 44.06C32.38 44.8467 31.1867 45.24 29.72 45.24ZM37.0058 45V30.8H42.4458C43.7391 30.8 44.7858 31.2 45.5858 32C46.3991 32.8 46.8058 33.8 46.8058 35C46.8058 36.8667 45.8324 38.1 43.8858 38.7L48.9858 45H45.4858L40.6058 39.02H39.9058V45H37.0058ZM39.9058 36.54H42.1058C42.6658 36.54 43.1058 36.4067 43.4258 36.14C43.7591 35.86 43.9258 35.48 43.9258 35C43.9258 34.52 43.7591 34.1467 43.4258 33.88C43.1058 33.6 42.6658 33.46 42.1058 33.46H39.9058V36.54ZM50.1308 30.8H52.7708L57.3908 37.14L62.0108 30.8H64.6508V45H61.7508V35.76L57.3908 41.74L53.0308 35.76V45H50.1308V30.8ZM74.3719 45V33.56H70.5919V30.8H81.1119V33.56H77.2919V45H74.3719ZM85.7391 45V33.56H81.9591V30.8H92.4791V33.56H88.6591V45H85.7391ZM97.2603 41.12C98.127 42 99.1736 42.44 100.4 42.44C101.627 42.44 102.667 42 103.52 41.12C104.387 40.2267 104.82 39.1533 104.82 37.9C104.82 36.6467 104.387 35.58 103.52 34.7C102.667 33.8067 101.627 33.36 100.4 33.36C99.1736 33.36 98.127 33.8067 97.2603 34.7C96.407 35.58 95.9803 36.6467 95.9803 37.9C95.9803 39.1533 96.407 40.2267 97.2603 41.12ZM105.58 43.1C104.154 44.5267 102.427 45.24 100.4 45.24C98.3736 45.24 96.6403 44.5267 95.2003 43.1C93.7736 41.66 93.0603 39.9267 93.0603 37.9C93.0603 35.8733 93.7736 34.1467 95.2003 32.72C96.6403 31.28 98.3736 30.56 100.4 30.56C102.427 30.56 104.154 31.28 105.58 32.72C107.02 34.1467 107.74 35.8733 107.74 37.9C107.74 39.9267 107.02 41.66 105.58 43.1Z" fill="white"/>
<rect x="222" y="20" width="44" height="44" rx="22" fill="white" fill-opacity="0.1"/>
<path d="M238.381 46.2216L249.3 37.4596M249.3 37.4596L239.459 36.381M249.3 37.4596L248.221 47.3002" stroke="white" stroke-width="2" stroke-linecap="round" stroke-linejoin="round"/>
</svg>
